<svg id="Capa_1" data-name="Capa 1" xmlns="http://www.w3.org/2000/svg" viewBox="0 0 469.91 270.95"><defs><style>.cls-1{fill:#fff;}.cls-2{fill:#2b100b;}.cls-3{fill:#e2ba02;}</style></defs><path class="cls-1" d="M143.35,217.22a4,4,0,0,1,.17,1.2,5.51,5.51,0,0,1-.56,2.33,11.36,11.36,0,0,1-1.6,2.47A14.65,14.65,0,0,1,140,224.7a20.53,20.53,0,0,1-1.69,1.44,17.5,17.5,0,0,1-1.65,1.1,11.37,11.37,0,0,1-1.6.8l-.31.13-.32.11a8.22,8.22,0,0,1-1.05.29l-1,.18c-.52.06-1,.09-1.57.1h-2l3-9.07h2.45L132,226.44a8.36,8.36,0,0,0,2.55-.75,12.68,12.68,0,0,0,2.27-1.39c.22-.17.52-.41.89-.73s.75-.66,1.14-1.06.62-.64.93-1a11.15,11.15,0,0,0,.81-1.07,6.14,6.14,0,0,0,.48-1,2.55,2.55,0,0,0,.18-.92,1.8,1.8,0,0,0-.1-.57,1.31,1.31,0,0,0-.33-.51v0a1.28,1.28,0,0,0-.68-.38,4.13,4.13,0,0,0-1.06-.12,6.78,6.78,0,0,0-.77,0l-.85.12a18.76,18.76,0,0,0-3,.79,33.7,33.7,0,0,0-3.29,1.32l-.64.29c-.22.09-.42.19-.63.3l-1-2.11.81-.38.84-.38c1.14-.48,2.27-.91,3.4-1.29a20.82,20.82,0,0,1,3.16-.82,9.62,9.62,0,0,1,1-.15c.33,0,.67,0,1,0h.16a6.22,6.22,0,0,1,2,.35,3.31,3.31,0,0,1,1.59,1.15A3.25,3.25,0,0,1,143.35,217.22Z"/><path class="cls-1" d="M149.43,228.89H144.3a2.69,2.69,0,0,1-1.19-.27,1.94,1.94,0,0,1-.86-.84,2.49,2.49,0,0,1-.21-.56,3.26,3.26,0,0,1-.07-.61c0-.05,0-.1,0-.16a.88.88,0,0,0,0-.17,4.21,4.21,0,0,1,.2-1c.1-.32.2-.61.31-.88a6.56,6.56,0,0,1,1.21-1.87,5.39,5.39,0,0,1,1.5-1.11,3.33,3.33,0,0,1,.64-.3,3.83,3.83,0,0,1,.63-.15l.28,0h.31a2.85,2.85,0,0,1,1.71.54,1.76,1.76,0,0,1,.76,1.51,2.87,2.87,0,0,1,0,.39,2.27,2.27,0,0,1-.13.43,3.81,3.81,0,0,1-.77,1.28,9.13,9.13,0,0,1-1.65,1.45h3.24Zm-3.79-5a4.09,4.09,0,0,0-.94,1.34s0,0,0,0a0,0,0,0,0,0,0,10.27,10.27,0,0,0,1.66-1.16,4,4,0,0,0,.78-.91A2.26,2.26,0,0,0,145.64,223.9Z"/><path class="cls-1" d="M152.74,226.56h2.33l-.75,2.33h-2.09a1.83,1.83,0,0,1-1.41-.58,1.91,1.91,0,0,1-.55-1.35,1.1,1.1,0,0,1,0-.18c0-.05,0-.11,0-.17a1.42,1.42,0,0,1,0-.16s0-.11,0-.17l3.86-11.86h2.45Z"/><path class="cls-1" d="M159,228.89h-2.12a1.83,1.83,0,0,1-1.41-.58,1.9,1.9,0,0,1-.54-1.35,1.09,1.09,0,0,1,0-.18.91.91,0,0,0,0-.17c0-.05,0-.1,0-.16a1.54,1.54,0,0,1,.05-.17l1.59-5h2.47l-1.69,5.29h2.33Zm.88-10a1.58,1.58,0,0,1-2.27,0,1.62,1.62,0,0,1-.47-1.14,1.55,1.55,0,0,1,.47-1.13,1.61,1.61,0,0,1,2.27,0,1.58,1.58,0,0,1,.46,1.13A1.65,1.65,0,0,1,159.86,218.86Z"/><path class="cls-1" d="M167.19,228.89H162a2.56,2.56,0,0,1-1.22-.3,2,2,0,0,1-.87-.88,2.59,2.59,0,0,1-.2-.57,3.05,3.05,0,0,1-.06-.6,3.8,3.8,0,0,1,.18-1.16,7.06,7.06,0,0,1,.41-1.06,0,0,0,0,1,0,0s0,0,0,0a7,7,0,0,1,1.92-2.23,4.33,4.33,0,0,1,2.72-1H165l.07,0h.1a2.28,2.28,0,0,1,1.45.66,2,2,0,0,1,.57,1.44v.14s0,.06,0,.08a.19.19,0,0,0,0,.08l-.12,1h-2.35l.11-1.13a2.28,2.28,0,0,0-1.29.54,4.54,4.54,0,0,0-1,1.08l-.13.21a1.74,1.74,0,0,0-.1.19.53.53,0,0,1-.06.15l-.13.32,0,.06,0,.06c0,.11-.07.21-.1.32a.79.79,0,0,0,0,.22.11.11,0,0,0,0,0l0,0h6Z"/><path class="cls-1" d="M175.93,228.89h-2.28a1.83,1.83,0,0,1-.68-.12,2.35,2.35,0,0,1-.56-.31,3.88,3.88,0,0,1-.77.36,4.75,4.75,0,0,1-.81.19l-.28,0h-.28a3,3,0,0,1-1.38-.33,2.33,2.33,0,0,1-1-1.06,2.81,2.81,0,0,1-.05-2.38,4.71,4.71,0,0,1,.61-1.07,6.45,6.45,0,0,1,2.93-2.23,11.23,11.23,0,0,1,3.63-.69h.33v2.33a12.29,12.29,0,0,0-1.49.09,6.16,6.16,0,0,0-1.42.36,4.67,4.67,0,0,0-1.16.58,4.32,4.32,0,0,0-.94.92.88.88,0,0,1-.07.12l-.09.16-.08.14-.09.17c0,.05,0,.1,0,.16a.61.61,0,0,0,0,.17.34.34,0,0,0,.07.18.33.33,0,0,0,.24.08,1.59,1.59,0,0,0,1.36-.61,5.22,5.22,0,0,0,.71-1.34c0-.11.06-.22.09-.31s.06-.19.1-.28l2.21.73-.52,1.62h2.52Z"/><path class="cls-1" d="M181.11,223.62h-1.25l-1,2.94h2.8l-.76,2.33h-2.63a1.82,1.82,0,0,1-1.38-.57,1.85,1.85,0,0,1-.53-1.31,1,1,0,0,1,0-.16s0-.11,0-.17a1,1,0,0,1,0-.18c0-.05,0-.11,0-.15l.9-2.73H176.1l.78-2.33h1.29l.89-2.75,2.21.73-.66,2h1.25Z"/><path class="cls-1" d="M189.2,228.89h-5.13a2.69,2.69,0,0,1-1.19-.27,1.92,1.92,0,0,1-.85-.84,2.11,2.11,0,0,1-.22-.56,3.26,3.26,0,0,1-.07-.61,1,1,0,0,1,0-.16s0-.11,0-.17a4.21,4.21,0,0,1,.2-1c.1-.32.21-.61.31-.88a6.37,6.37,0,0,1,1.22-1.87,5.21,5.21,0,0,1,1.49-1.11,3.14,3.14,0,0,1,.65-.3,3.72,3.72,0,0,1,.62-.15l.28,0h.31a2.9,2.9,0,0,1,1.72.54,1.75,1.75,0,0,1,.75,1.51,1.84,1.84,0,0,1,0,.39,1.72,1.72,0,0,1-.13.43,3.81,3.81,0,0,1-.77,1.28,8.8,8.8,0,0,1-1.65,1.45H190Zm-3.79-5a4.25,4.25,0,0,0-.94,1.34s0,0,0,0a0,0,0,0,0,0,0,10.27,10.27,0,0,0,1.66-1.16,4.41,4.41,0,0,0,.79-.91A2.27,2.27,0,0,0,185.41,223.9Z"/><path class="cls-1" d="M201.15,223.62H199.9l-1,2.94h2.8l-.76,2.33h-2.63a1.8,1.8,0,0,1-1.38-.57,1.85,1.85,0,0,1-.53-1.31,1,1,0,0,1,0-.16s0-.11,0-.17,0-.12,0-.18a1.31,1.31,0,0,0,.05-.15l.89-2.73h-1.31l.77-2.33h1.3l.89-2.75,2.21.73-.66,2h1.25Z"/><path class="cls-1" d="M210.13,228.89h-2.28a1.83,1.83,0,0,1-.68-.12,2.35,2.35,0,0,1-.56-.31,4.16,4.16,0,0,1-.77.36,4.75,4.75,0,0,1-.81.19l-.28,0h-.29a3,3,0,0,1-1.37-.33,2.33,2.33,0,0,1-1-1.06,2.81,2.81,0,0,1,0-2.38,4.36,4.36,0,0,1,.61-1.07,6.4,6.4,0,0,1,2.93-2.23,11.23,11.23,0,0,1,3.63-.69h.33v2.33a12.29,12.29,0,0,0-1.49.09,6,6,0,0,0-1.42.36,4.67,4.67,0,0,0-1.16.58,4.32,4.32,0,0,0-.94.92.88.88,0,0,1-.07.12l-.09.16-.09.14-.08.17c0,.05,0,.1,0,.16a.61.61,0,0,0,0,.17.34.34,0,0,0,.07.18.33.33,0,0,0,.24.08,1.59,1.59,0,0,0,1.36-.61,5.55,5.55,0,0,0,.71-1.34c0-.11.06-.22.09-.31s.06-.19.1-.28l2.21.73-.52,1.62h2.52Z"/><path class="cls-1" d="M215.31,227.9a3.44,3.44,0,0,1-2.57,1h-2.37l.75-2.33h1.62a1.27,1.27,0,0,0,.91-.29,1.31,1.31,0,0,0,.29-.93,2.59,2.59,0,0,0-.07-.63,2.76,2.76,0,0,0-.19-.53l-.76,1a4.55,4.55,0,0,0-.32.46l-1.88-1.37q1-1.41,1.65-2.25c.39-.57.76-1.08,1.1-1.56s.52-.71.52-.72l2.09,1-.28.4c-.17.25-.39.56-.66.92a5,5,0,0,1,.84,1.49,5.29,5.29,0,0,1,.29,1.71A3.52,3.52,0,0,1,215.31,227.9Z"/><path class="cls-1" d="M221.37,223.62h-1.24l-1,2.94H222l-.75,2.33h-2.63a1.79,1.79,0,0,1-1.38-.57,1.85,1.85,0,0,1-.53-1.31.92.92,0,0,1,0-.16.91.91,0,0,0,0-.17,1.67,1.67,0,0,0,.05-.18c0-.05,0-.11,0-.15l.89-2.73h-1.32l.78-2.33h1.29l.9-2.75,2.21.73-.66,2h1.25Z"/><path class="cls-1" d="M229.47,228.89h-5.13a2.66,2.66,0,0,1-1.19-.27,1.94,1.94,0,0,1-.86-.84,2.49,2.49,0,0,1-.21-.56,2.6,2.6,0,0,1-.07-.61.92.92,0,0,1,0-.16.91.91,0,0,0,0-.17,4.83,4.83,0,0,1,.2-1c.1-.32.21-.61.32-.88a6.36,6.36,0,0,1,1.21-1.87,5.39,5.39,0,0,1,1.5-1.11,3.33,3.33,0,0,1,.64-.3,3.72,3.72,0,0,1,.62-.15l.29,0h.3a2.86,2.86,0,0,1,1.72.54,1.75,1.75,0,0,1,.75,1.51,2.77,2.77,0,0,1,0,.39,3.35,3.35,0,0,1-.13.43,4,4,0,0,1-.78,1.28,8.71,8.71,0,0,1-1.64,1.45h3.24Zm-3.79-5a4.09,4.09,0,0,0-.94,1.34s0,0,0,0l0,0a9.44,9.44,0,0,0,1.66-1.16,3.87,3.87,0,0,0,.79-.91A2.24,2.24,0,0,0,225.68,223.9Z"/><path class="cls-1" d="M244.87,228.89h-2.28a1.83,1.83,0,0,1-.68-.12,2.42,2.42,0,0,1-.57-.31,3.79,3.79,0,0,1-.76.36,5.23,5.23,0,0,1-.81.19l-.29,0h-.28a3,3,0,0,1-1.37-.33,2.35,2.35,0,0,1-1-1.06,3.81,3.81,0,0,1-.21-.59,2.46,2.46,0,0,1-.07-.6,3,3,0,0,1,.24-1.19,4.36,4.36,0,0,1,.61-1.07A6.4,6.4,0,0,1,240.3,222a11.18,11.18,0,0,1,3.63-.69h.33v2.33a12.29,12.29,0,0,0-1.49.09,6.25,6.25,0,0,0-1.43.36,4.78,4.78,0,0,0-1.15.58,4.32,4.32,0,0,0-.94.92l-.07.12-.1.16c0,.05-.05.1-.08.14l-.08.17c0,.05,0,.1,0,.16a1.28,1.28,0,0,0,0,.17.27.27,0,0,0,.07.18.33.33,0,0,0,.24.08,1.59,1.59,0,0,0,1.36-.61,5.55,5.55,0,0,0,.71-1.34c0-.11.06-.22.09-.31l.09-.28,2.21.73-.51,1.62h2.51Z"/><path class="cls-1" d="M253.88,228.89h-1.62a1.91,1.91,0,0,1-2-1.93,2.09,2.09,0,0,1,0-.34,3.38,3.38,0,0,1,.08-.34,3,3,0,0,1,.1-.32l.09-.29c.06-.21.12-.41.19-.62s.12-.4.19-.61l0-.09a.31.31,0,0,0,0-.1c0-.07.06-.16.09-.25a2.93,2.93,0,0,0,0-.29,2.89,2.89,0,0,0-.44.24,3.14,3.14,0,0,0-.52.4,7.59,7.59,0,0,0-1.23,1.34,7,7,0,0,0-.91,1.6l-.52,1.6h-2.44l2.47-7.62H250l-.16.49a5.12,5.12,0,0,1,.53-.25,2.64,2.64,0,0,1,.55-.15,1.31,1.31,0,0,1,.27-.06h.27a1.78,1.78,0,0,1,.39,0,1.36,1.36,0,0,1,.36.1,1.65,1.65,0,0,1,1,.83,2.74,2.74,0,0,1,.31,1.27,3.56,3.56,0,0,1-.09.76,5.85,5.85,0,0,1-.24.88,2,2,0,0,0-.12.34,3.37,3.37,0,0,1-.1.34c0,.05,0,.09,0,.13a.26.26,0,0,0,0,.11c0,.08,0,.16-.07.23a.73.73,0,0,1-.07.24h1.88Z"/><path class="cls-1" d="M261.78,225.45l-.06.24a1.33,1.33,0,0,0,0,.28.55.55,0,0,0,0,.18s0,.11.07.17a.47.47,0,0,0,.19.15l.23.07.1,0h1.62l-.75,2.33h-.78a3.27,3.27,0,0,1-1.27-.25,2.7,2.7,0,0,1-1.05-.76,5,5,0,0,1-1.11.68,3.6,3.6,0,0,1-1.18.3l-.17,0h-.18a2.55,2.55,0,0,1-2.13-.85,3.11,3.11,0,0,1-.67-2c0-.11,0-.22,0-.32s0-.2,0-.3a5,5,0,0,1,.14-.62,5.29,5.29,0,0,1,.21-.6,5.46,5.46,0,0,1,1.61-2,4,4,0,0,1,2.6-.89h1.44l2.23-6.89h2.45Zm-2.54-1.83a2,2,0,0,0-1.47.66,2.93,2.93,0,0,0-.81,1.43.34.34,0,0,1,0,.1.28.28,0,0,0,0,.09.87.87,0,0,0,.06.48c.05.12.19.18.43.18h.17a2,2,0,0,0,1.1-.53,2.6,2.6,0,0,0,.73-1l0-.09a.19.19,0,0,1,0-.1l.42-1.22Z"/><path class="cls-1" d="M278.53,223.62h-1.37a6.81,6.81,0,0,1,.92,2,7.81,7.81,0,0,1,.28,2.27v.28a1.27,1.27,0,0,1,0,.28,9.41,9.41,0,0,1-1.18,4.06,7,7,0,0,1-2.87,2.91,4.49,4.49,0,0,1-.78.34,5,5,0,0,1-.84.17.57.57,0,0,1-.18,0h-.17a2.57,2.57,0,0,1-1.07-.23,2.33,2.33,0,0,1-.91-.74v.05a5.44,5.44,0,0,1-.39-.88,3.7,3.7,0,0,1-.15-1.1,4.82,4.82,0,0,1,.1-1c.06-.35.14-.71.25-1.11l2.4-7.38h-2l.94-2.35h1.86l2.21-6.85H278l-2.22,6.85h3.51Zm-3.54,1a1.19,1.19,0,0,0-.23-.22c-.39,1.22-.78,2.44-1.18,3.65s-.8,2.44-1.19,3.66l0,.08s0,.05,0,.08a1.59,1.59,0,0,0-.07.2,1,1,0,0,1,0,.2,3.77,3.77,0,0,0-.1.43,1.87,1.87,0,0,0,0,.4.6.6,0,0,0,.1.37.35.35,0,0,0,.33.15,1,1,0,0,0,.29-.06,2.71,2.71,0,0,0,.41-.18,4.82,4.82,0,0,0,1.94-2.07,7.43,7.43,0,0,0,.86-2.94,1,1,0,0,0,0-.25v-.27a5.9,5.9,0,0,0-.2-1.58,4.15,4.15,0,0,0-.64-1.38Z"/><path class="cls-1" d="M281.75,226.56h2.33l-.75,2.33h-2.1a1.83,1.83,0,0,1-1.41-.58,1.9,1.9,0,0,1-.54-1.35,1.09,1.09,0,0,1,0-.18.91.91,0,0,0,0-.17c0-.05,0-.1.05-.16s0-.11,0-.17l3.85-11.86h2.45Z"/><path class="cls-1" d="M292.24,228.89H290a1.83,1.83,0,0,1-.68-.12,2.24,2.24,0,0,1-.57-.31,3.79,3.79,0,0,1-.76.36,5.23,5.23,0,0,1-.81.19l-.29,0h-.28a3,3,0,0,1-1.37-.33,2.3,2.3,0,0,1-1-1.06,3.81,3.81,0,0,1-.21-.59,2.46,2.46,0,0,1-.07-.6,3,3,0,0,1,.24-1.19,4.36,4.36,0,0,1,.61-1.07,6.4,6.4,0,0,1,2.93-2.23,11.13,11.13,0,0,1,3.63-.69h.33v2.33a12.29,12.29,0,0,0-1.49.09,6.25,6.25,0,0,0-1.43.36,4.6,4.6,0,0,0-1.15.58,4.32,4.32,0,0,0-.94.92l-.07.12c0,.05-.07.1-.1.16s-.05.1-.08.14l-.08.17c0,.05,0,.1-.05.16a1.28,1.28,0,0,0,0,.17.27.27,0,0,0,.07.18.3.3,0,0,0,.23.08,1.6,1.6,0,0,0,1.37-.61,5.19,5.19,0,0,0,.7-1.34c0-.11.07-.22.1-.31l.09-.28,2.21.73-.51,1.62H293Z"/><path class="cls-1" d="M300.68,224.77h-1.95c-.11.19-.23.38-.35.57l-.4.56a10.52,10.52,0,0,1-1.52,1.65,18.74,18.74,0,0,1-1.75,1.34h-.64c-.09-.14-.18-.28-.28-.41l-.26-.39a7.62,7.62,0,0,1-.7-1.51,5.49,5.49,0,0,1-.26-1.81,9.54,9.54,0,0,1,.09-1.29,10.4,10.4,0,0,1,.29-1.32c0-.16.09-.31.14-.46s.09-.29.14-.43h2.49a8,8,0,0,0-.42,1.11,7.43,7.43,0,0,0-.28,1.22,4.17,4.17,0,0,0-.1.6c0,.19,0,.39,0,.6s0,.31,0,.48,0,.32.07.48a9.5,9.5,0,0,0,.83-.85,9,9,0,0,0,.68-.94,2.44,2.44,0,0,1-.19-.44,1.59,1.59,0,0,1-.07-.48c0-.09,0-.18,0-.28a2.86,2.86,0,0,1,.07-.28,2.08,2.08,0,0,1,.72-1,2.87,2.87,0,0,1,1.14-.55l.25,0h1.84c-.07.25-.16.51-.24.77s-.17.52-.25.78h1.65Z"/><path class="cls-1" d="M308.61,225.5h-1.13a4.44,4.44,0,0,1-1.45,2.38,3.81,3.81,0,0,1-2.6,1h-.12a.31.31,0,0,1-.13,0h-.26a3.1,3.1,0,0,1-2.08-1.16,3.49,3.49,0,0,1-.79-2.27,4.25,4.25,0,0,1,1.22-3,3.9,3.9,0,0,1,2.94-1.3,3.27,3.27,0,0,1,1.85.54,3.36,3.36,0,0,1,1.21,1.43h2.12Zm-4.69-.63a2,2,0,0,1-.51-1.13,2,2,0,0,0-.63.62,1.88,1.88,0,0,0-.33.81v.12a.06.06,0,0,0,0,.06v.06a1.42,1.42,0,0,0,.27.75.88.88,0,0,0,.74.33,1.44,1.44,0,0,0,.89-.31,2.13,2.13,0,0,0,.64-.73A1.85,1.85,0,0,1,303.92,224.87Z"/><path class="cls-1" d="M315.43,223.62a2.85,2.85,0,0,0-.42.38c-.19.18-.39.4-.59.63a2,2,0,0,0-.19.21,1.29,1.29,0,0,1-.19.21c-.2.27-.37.52-.52.74a1.18,1.18,0,0,0-.21.56.38.38,0,0,0,.09.15.27.27,0,0,0,.2.06h2.63l-.75,2.33H313.6a2.88,2.88,0,0,1-1.36-.33,2.32,2.32,0,0,1-1-1,1.69,1.69,0,0,1-.12-.28,1.55,1.55,0,0,1-.07-.31,1.4,1.4,0,0,1-.06-.28,2.62,2.62,0,0,1,0-.28,3.49,3.49,0,0,1,.33-1.47,8.25,8.25,0,0,1,.77-1.33h-.5l-.13,0a1,1,0,0,0-.45.27,1.23,1.23,0,0,0-.3.41.09.09,0,0,0,0,.06.13.13,0,0,0,0,.06l-.19.54-2.21-.73,1.29-4.05,2.24.73-.12.31h4.63v2.35Z"/><path class="cls-1" d="M319.15,228.89H316.7l.73-2.31h2.47Zm1.34-4.17H318l3.18-9.73h2.44Z"/><path class="cls-1" d="M76.22,71.62a7.69,7.69,0,0,0,1.16-.52,2.13,2.13,0,0,0,.67-.54,1.07,1.07,0,0,0,.25-.6,1.67,1.67,0,0,0-.12-.7l.47-.17c.5,1.38.75,2.07,1.24,3.45l-.46.16a1.72,1.72,0,0,0-.35-.61,1,1,0,0,0-.56-.32,2.46,2.46,0,0,0-.86,0,7.31,7.31,0,0,0-1.25.36l1,2.84a2,2,0,0,0,.36.65,1.05,1.05,0,0,0,.52.31,2,2,0,0,0,.76,0,7.57,7.57,0,0,0,1.05-.31,6.9,6.9,0,0,0,1.14-.52,2.19,2.19,0,0,0,.69-.61,1.66,1.66,0,0,0,.31-.79,4.49,4.49,0,0,0,0-1l.5-.18c.27,1,.41,1.54.69,2.56-3.24,1.15-4.86,1.74-8.08,3-.08-.19-.11-.29-.18-.48a4.1,4.1,0,0,0,.7-.35,1,1,0,0,0,.36-.38.89.89,0,0,0,0-.5,5.09,5.09,0,0,0-.22-.74c-.88-2.34-1.31-3.51-2.19-5.85a4.43,4.43,0,0,0-.31-.7.9.9,0,0,0-.35-.35.75.75,0,0,0-.48-.06,4,4,0,0,0-.72.17l-.18-.47c3.07-1.16,4.61-1.73,7.7-2.83l.91,2.18L80,67.8a2.86,2.86,0,0,0-.56-.74,1.44,1.44,0,0,0-.68-.33,2.4,2.4,0,0,0-.88,0,7.86,7.86,0,0,0-1.19.35L75,67.72a.2.2,0,0,0-.15.29C75.42,69.46,75.69,70.18,76.22,71.62Z"/><path class="cls-1" d="M93.3,71.67c-3.39,1.12-5.08,1.69-8.45,2.88l-.17-.49a3.69,3.69,0,0,0,.71-.33,1,1,0,0,0,.36-.37.81.81,0,0,0,.06-.5,3.61,3.61,0,0,0-.2-.74l-2-5.91a5.16,5.16,0,0,0-.29-.7.91.91,0,0,0-.34-.36.74.74,0,0,0-.48-.08,6.61,6.61,0,0,0-.72.16l-.17-.48c1.62-.57,2.44-.85,4.07-1.4.06.19.1.29.16.48a4.17,4.17,0,0,0-.66.31.78.78,0,0,0-.33.37,1.08,1.08,0,0,0,0,.52,6.27,6.27,0,0,0,.22.79l1.88,5.47a3,3,0,0,0,.41.83,1,1,0,0,0,.56.39,1.93,1.93,0,0,0,.8,0,9.29,9.29,0,0,0,1.15-.31A8.51,8.51,0,0,0,91,71.7a2.51,2.51,0,0,0,.77-.58,1.72,1.72,0,0,0,.36-.77,4.26,4.26,0,0,0,0-1.09l.51-.16Z"/><path class="cls-1" d="M96.42,68a7.7,7.7,0,0,0,.38,1,1.41,1.41,0,0,0,.38.51.77.77,0,0,0,.52.13,4.24,4.24,0,0,0,.77-.16c.06.2.1.29.16.49-1.71.53-2.56.8-4.27,1.36l-.15-.49a3.75,3.75,0,0,0,.71-.32.81.81,0,0,0,.36-.4,1.21,1.21,0,0,0,0-.61,6.89,6.89,0,0,0-.26-1c-.66-2.08-1-3.11-1.66-5.19a9.21,9.21,0,0,0-.33-.87,1.36,1.36,0,0,0-.37-.5.82.82,0,0,0-.5-.15,3.23,3.23,0,0,0-.73.11c-.07-.19-.1-.29-.16-.48l4.09-1.31.15.49a2.9,2.9,0,0,0-.66.32.87.87,0,0,0-.31.43,1.52,1.52,0,0,0,0,.64,8.67,8.67,0,0,0,.25,1C95.47,65,95.79,66,96.42,68Z"/><path class="cls-1" d="M107.49,59.21l-.55.16a3.51,3.51,0,0,0-.45-.87,1.48,1.48,0,0,0-.6-.47,1.78,1.78,0,0,0-.78-.1,5.14,5.14,0,0,0-1,.2c-.33.1-.6.18-.8.26a2.52,2.52,0,0,0-.45.2.47.47,0,0,0-.17.19.35.35,0,0,0,0,.2l2,6.88a3.55,3.55,0,0,0,.27.69,1,1,0,0,0,.38.41,1.11,1.11,0,0,0,.6.13,3.76,3.76,0,0,0,.93-.15c.06.2.08.3.14.49-2,.58-3,.88-5,1.49l-.15-.49a4,4,0,0,0,.86-.38,1.15,1.15,0,0,0,.44-.44,1,1,0,0,0,.09-.55,4,4,0,0,0-.15-.73c-.82-2.75-1.23-4.12-2.06-6.87a.39.39,0,0,0-.1-.18.42.42,0,0,0-.23-.06,1.46,1.46,0,0,0-.42.05c-.17,0-.4.1-.69.19a10,10,0,0,0-1,.33,2,2,0,0,0-.71.47,1.44,1.44,0,0,0-.36.73,2.64,2.64,0,0,0,.12,1.13l-.5.16-.76-2.45c4.08-1.27,6.12-1.88,10.22-3Z"/><path class="cls-1" d="M111.79,60.19a8,8,0,0,0,1.19-.42,2.1,2.1,0,0,0,.71-.48,1,1,0,0,0,.29-.57,1.6,1.6,0,0,0,0-.71l.47-.13.95,3.54-.47.12a1.9,1.9,0,0,0-.3-.64,1,1,0,0,0-.53-.36,2.19,2.19,0,0,0-.85-.08,7,7,0,0,0-1.27.25l.8,2.92a2.1,2.1,0,0,0,.3.67,1,1,0,0,0,.49.36,1.79,1.79,0,0,0,.75.06,6,6,0,0,0,1.07-.22,6.28,6.28,0,0,0,1.17-.41,2.3,2.3,0,0,0,.74-.55,1.75,1.75,0,0,0,.37-.76,4.07,4.07,0,0,0,.09-1l.51-.13c.18,1,.28,1.56.46,2.61-3.3.86-5,1.3-8.24,2.23-.06-.19-.09-.29-.14-.49a3.56,3.56,0,0,0,.73-.29,1,1,0,0,0,.38-.34.79.79,0,0,0,.09-.5,4.92,4.92,0,0,0-.15-.75l-1.68-6a3.93,3.93,0,0,0-.25-.72.83.83,0,0,0-.31-.39.77.77,0,0,0-.47-.1,5,5,0,0,0-.73.11l-.14-.49c3.14-.88,4.71-1.31,7.86-2.13l.72,2.25-.47.12a2.83,2.83,0,0,0-.49-.78,1.52,1.52,0,0,0-.64-.39,2.46,2.46,0,0,0-.88-.06,9.15,9.15,0,0,0-1.21.24l-1.72.47a.2.2,0,0,0-.17.28Z"/><path class="cls-1" d="M123.81,62.91l-.12-.49a5.09,5.09,0,0,0,.82-.28,1,1,0,0,0,.42-.34.79.79,0,0,0,.12-.5,3.09,3.09,0,0,0-.12-.76l-1.48-6.07a4.07,4.07,0,0,0-.22-.73,1,1,0,0,0-.3-.4.84.84,0,0,0-.47-.12,6.5,6.5,0,0,0-.73.09l-.12-.49,4.09-1a5.62,5.62,0,0,1,3,0,2,2,0,0,1,1.42,1.53,1.94,1.94,0,0,1-.24,1.54,4.35,4.35,0,0,1-1.58,1.32l0,0c.28,0,.53-.07.75-.08h.58a2.62,2.62,0,0,1,.5.07l.46.14a2.5,2.5,0,0,1,1.67,1.8,2.34,2.34,0,0,1-.11,1.38,2.73,2.73,0,0,1-.89,1.18,2.55,2.55,0,0,1-.43.3,4.46,4.46,0,0,1-.53.25c-.21.08-.45.15-.73.23l-1,.26C126.69,62.21,125.73,62.44,123.81,62.91Zm2.42-6.52c.28-.06.51-.12.7-.18a3,3,0,0,0,.48-.16,2.15,2.15,0,0,0,.34-.17l.28-.24a1.63,1.63,0,0,0,.47-.77,2.31,2.31,0,0,0,0-1,1.9,1.9,0,0,0-.87-1.36,2.52,2.52,0,0,0-1.75-.06l-1,.25c-.16,0-.22.13-.18.27.34,1.44.52,2.16.86,3.6Zm2.3,4.79c1.61-.37,2.27-1.23,2-2.58a2.15,2.15,0,0,0-1.73-1.78l-.46-.06a2.74,2.74,0,0,0-.49,0c-.19,0-.41.06-.66.11l-.91.2-.61.15.7,2.91a1.38,1.38,0,0,0,.7,1A2.27,2.27,0,0,0,128.53,61.18Z"/><path class="cls-1" d="M135.77,54.33A8.18,8.18,0,0,0,137,54a2.17,2.17,0,0,0,.73-.44A1,1,0,0,0,138,53a1.55,1.55,0,0,0,0-.71l.48-.1.74,3.59-.47.1a2,2,0,0,0-.26-.66,1.08,1.08,0,0,0-.51-.4,2.51,2.51,0,0,0-.85-.12,6.19,6.19,0,0,0-1.27.17l.63,3a2.18,2.18,0,0,0,.26.7,1,1,0,0,0,.47.38,1.84,1.84,0,0,0,.74.1,6.28,6.28,0,0,0,1.08-.15,6.9,6.9,0,0,0,1.19-.35A2.16,2.16,0,0,0,141,58a1.69,1.69,0,0,0,.41-.73,4.27,4.27,0,0,0,.14-1l.52-.11c.12,1.06.19,1.58.31,2.63-3.34.67-5,1-8.33,1.76,0-.2-.07-.3-.11-.5a5,5,0,0,0,.74-.24,1,1,0,0,0,.4-.32.79.79,0,0,0,.12-.5,4.45,4.45,0,0,0-.11-.76l-1.33-6.1a4.17,4.17,0,0,0-.21-.73.87.87,0,0,0-.29-.41.74.74,0,0,0-.46-.13,4.41,4.41,0,0,0-.73.07c0-.2-.07-.3-.11-.5,3.17-.7,4.76-1,7.94-1.67.24.91.35,1.37.59,2.29l-.48.09a2.71,2.71,0,0,0-.44-.8,1.48,1.48,0,0,0-.62-.43,2.12,2.12,0,0,0-.87-.11,6.84,6.84,0,0,0-1.21.17l-1.75.37a.2.2,0,0,0-.18.27Z"/><path class="cls-1" d="M148.55,55.48c.53-2.46.81-3.69,1.36-6.16.08-.35.13-.62.16-.82a1.71,1.71,0,0,0,0-.51.53.53,0,0,0-.32-.46,1.75,1.75,0,0,0-.87,0l-.09-.5,3.36-.59.08.5a3,3,0,0,0-.52.2,1.29,1.29,0,0,0-.37.26,1.16,1.16,0,0,0-.25.36,2.53,2.53,0,0,0-.17.51c-.88,3.76-1.31,5.64-2.12,9.39l-.47.09c-2-3-3-4.54-5.07-7.54a7.55,7.55,0,0,0-.48-.62,2.13,2.13,0,0,0-.47-.4,1.24,1.24,0,0,0-.52-.18,2.35,2.35,0,0,0-.65,0l-.1-.51c1.8-.36,2.69-.53,4.49-.87l.1.51a5.7,5.7,0,0,0-.62.15,1.49,1.49,0,0,0-.36.18.46.46,0,0,0-.16.22.64.64,0,0,0,0,.24,2.14,2.14,0,0,0,.15.42,7.4,7.4,0,0,0,.4.65C146.44,52.19,147.15,53.29,148.55,55.48Z"/><path class="cls-1" d="M156.37,50.45a8,8,0,0,0,1.23-.29,2.19,2.19,0,0,0,.75-.4,1.13,1.13,0,0,0,.35-.54,1.85,1.85,0,0,0,0-.71l.48-.08c.23,1.45.34,2.17.57,3.62l-.48.08a1.76,1.76,0,0,0-.23-.67.91.91,0,0,0-.48-.42,2.19,2.19,0,0,0-.84-.17,6.41,6.41,0,0,0-1.28.11c.2,1.19.29,1.79.49,3a2.14,2.14,0,0,0,.22.7,1,1,0,0,0,.45.41,2,2,0,0,0,.74.14,8,8,0,0,0,1.08-.1,6.61,6.61,0,0,0,1.2-.29,2.24,2.24,0,0,0,.79-.47,1.8,1.8,0,0,0,.45-.71,4.52,4.52,0,0,0,.19-1l.52-.08c.07,1.06.11,1.59.19,2.65-3.36.5-5,.77-8.39,1.34l-.09-.5a3.88,3.88,0,0,0,.75-.21.83.83,0,0,0,.41-.3.82.82,0,0,0,.15-.49,4,4,0,0,0-.08-.76c-.41-2.47-.61-3.7-1-6.16a4.88,4.88,0,0,0-.17-.74.81.81,0,0,0-.27-.42.73.73,0,0,0-.46-.16c-.19,0-.43,0-.73,0l-.08-.5c3.19-.55,4.79-.8,8-1.29.19.93.29,1.39.48,2.32l-.48.07a2.67,2.67,0,0,0-.4-.83,1.51,1.51,0,0,0-.6-.46,2.17,2.17,0,0,0-.86-.15,8.57,8.57,0,0,0-1.22.11l-1.75.29a.2.2,0,0,0-.2.26C156,48.17,156.12,48.93,156.37,50.45Z"/><path class="cls-1" d="M171.53,46.16a2.5,2.5,0,0,1-.44,1.85,3.62,3.62,0,0,1-2,1.22c1.4,1.26,2.09,1.89,3.47,3.15a2.24,2.24,0,0,0,.89.53,4.25,4.25,0,0,0,1.09.16l.06.5L172,53.9c-1.54-1.5-2.32-2.25-3.88-3.73a2.51,2.51,0,0,0-.39-.32,1.42,1.42,0,0,0-.36-.16,1.68,1.68,0,0,0-.41,0l-.54.06c.15,1.1.23,1.66.39,2.76a3.92,3.92,0,0,0,.17.8.9.9,0,0,0,.32.45,1.27,1.27,0,0,0,.61.15,6.67,6.67,0,0,0,1-.07l.07.5c-1.92.26-2.87.39-4.78.68l-.08-.51a4,4,0,0,0,.76-.19,1,1,0,0,0,.42-.29.88.88,0,0,0,.15-.48,4.59,4.59,0,0,0,0-.77c-.36-2.47-.54-3.71-.89-6.19a4.21,4.21,0,0,0-.16-.74.86.86,0,0,0-.25-.42.76.76,0,0,0-.46-.17,4.75,4.75,0,0,0-.73,0l-.08-.51,4.36-.61a5.39,5.39,0,0,1,3.05.28A2.17,2.17,0,0,1,171.53,46.16ZM166.34,49l1-.13a3.62,3.62,0,0,0,2-.76,1.86,1.86,0,0,0,.45-1.69A2,2,0,0,0,169,45a2.57,2.57,0,0,0-1.74-.24l-1.27.18a.2.2,0,0,0-.2.26C166,46.72,166.12,47.5,166.34,49Z"/><path class="cls-1" d="M180.49,49.14l-3.66.4c-.11.39-.2.72-.28,1s-.14.54-.18.75a3.36,3.36,0,0,0-.08.54,1,1,0,0,0,0,.35.52.52,0,0,0,.3.48,1.71,1.71,0,0,0,.83,0c0,.2,0,.3.06.51l-3.3.39c0-.2,0-.31-.06-.51a3.17,3.17,0,0,0,.52-.17,1.43,1.43,0,0,0,.38-.23,1.33,1.33,0,0,0,.26-.35,3.25,3.25,0,0,0,.19-.51c1-3.63,1.52-5.45,2.58-9.08l.6-.07c1.59,2.87,2.38,4.31,3.93,7.19.26.48.48.86.67,1.14a2.75,2.75,0,0,0,.51.63,1,1,0,0,0,.5.25,2.43,2.43,0,0,0,.61,0l0,.52-4.43.45-.05-.52a2.48,2.48,0,0,0,1-.24.44.44,0,0,0,.22-.47,1.5,1.5,0,0,0,0-.24,1.09,1.09,0,0,0-.07-.24,1.82,1.82,0,0,0-.13-.3l-.19-.37ZM177,48.85c1.25-.15,1.88-.22,3.13-.35l-2-3.77C177.73,46.38,177.49,47.2,177,48.85Z"/><path class="cls-1" d="M190.31,52.09a5.56,5.56,0,0,1-2.11-.18,4.42,4.42,0,0,1-2.84-2.39,6.3,6.3,0,0,1-.55-2.08,5.93,5.93,0,0,1,.18-2.25,5.09,5.09,0,0,1,.92-1.83,4.79,4.79,0,0,1,1.58-1.26,5.79,5.79,0,0,1,2.13-.59,5.63,5.63,0,0,1,1.6.1,7.75,7.75,0,0,1,1.66.61c.09-.34.13-.51.23-.85l.48,0,0,3.09-.66,0a2.42,2.42,0,0,0-.34-1.11,2.45,2.45,0,0,0-.74-.73,2.86,2.86,0,0,0-1-.37,4,4,0,0,0-1.1-.06,3.52,3.52,0,0,0-1.49.45,2.9,2.9,0,0,0-1,1,4.35,4.35,0,0,0-.57,1.53,7.21,7.21,0,0,0-.06,2,5.23,5.23,0,0,0,1.22,3.22,3.18,3.18,0,0,0,2.74.93,4.23,4.23,0,0,0,1.16-.25,2.79,2.79,0,0,0,.85-.49,1.78,1.78,0,0,0,.5-.64,1.44,1.44,0,0,0,.13-.73,1.32,1.32,0,0,0-.4-1,1.66,1.66,0,0,0-1.08-.2c0-.2,0-.3,0-.5l3.91-.3c0,.2,0,.31,0,.51a2.32,2.32,0,0,0-.54.09.75.75,0,0,0-.34.22.76.76,0,0,0-.15.38,2.79,2.79,0,0,0,0,.58c0,.6.06.9.11,1.5l-.47,0a2.71,2.71,0,0,0-.44.13,4.43,4.43,0,0,0-.5.24q-.27.15-.63.39a4.36,4.36,0,0,1-1.06.52A5.49,5.49,0,0,1,190.31,52.09Z"/><path class="cls-1" d="M199.5,45.6a7.41,7.41,0,0,0,1.25-.17,2,2,0,0,0,.78-.32,1,1,0,0,0,.4-.5,1.77,1.77,0,0,0,.1-.71l.48,0,.2,3.66-.48,0a2,2,0,0,0-.15-.69,1.07,1.07,0,0,0-.45-.47,2.21,2.21,0,0,0-.81-.25,7.46,7.46,0,0,0-1.28,0c.07,1.21.11,1.82.18,3a2,2,0,0,0,.16.72,1,1,0,0,0,.4.45,1.8,1.8,0,0,0,.72.21,7.57,7.57,0,0,0,1.08,0,6.4,6.4,0,0,0,1.23-.17,2.08,2.08,0,0,0,.82-.38,1.81,1.81,0,0,0,.52-.67,4.28,4.28,0,0,0,.29-1l.52,0c0,1.06,0,1.59-.07,2.65-3.39.17-5.08.27-8.46.5,0-.2,0-.3,0-.51a4.06,4.06,0,0,0,.77-.13.91.91,0,0,0,.44-.26.88.88,0,0,0,.19-.47,4.76,4.76,0,0,0,0-.76c-.16-2.5-.24-3.75-.41-6.24a5.68,5.68,0,0,0-.09-.76.92.92,0,0,0-.23-.44.79.79,0,0,0-.44-.2,4.9,4.9,0,0,0-.73,0l0-.5c3.22-.22,4.83-.32,8.06-.48.1.94.15,1.41.24,2.35l-.48,0a2.76,2.76,0,0,0-.32-.86,1.39,1.39,0,0,0-.54-.51,2.07,2.07,0,0,0-.84-.24,7,7,0,0,0-1.22,0l-1.77.1c-.16,0-.23.09-.22.24C199.36,43.29,199.41,44.06,199.5,45.6Z"/><path class="cls-1" d="M206.85,47.73l.51,0a3.45,3.45,0,0,0,.41,1.07,2.79,2.79,0,0,0,.71.78,2.66,2.66,0,0,0,1,.48,3.28,3.28,0,0,0,1.14.14,2.52,2.52,0,0,0,1.59-.52,1.72,1.72,0,0,0,.41-1.91,1.77,1.77,0,0,0-.41-.53,3.61,3.61,0,0,0-.75-.49,12.42,12.42,0,0,0-1.19-.51,13.35,13.35,0,0,1-1.46-.64,4.37,4.37,0,0,1-.95-.66,2.2,2.2,0,0,1-.53-.75,2.64,2.64,0,0,1-.18-.92,2.7,2.7,0,0,1,.18-1.15,2.65,2.65,0,0,1,.6-.94,3.13,3.13,0,0,1,1-.63,3.57,3.57,0,0,1,1.25-.25,3.34,3.34,0,0,1,1.15.14,4.46,4.46,0,0,1,1.1.57c.13-.24.2-.37.34-.61H213c.1,1.06.14,1.6.24,2.66l-.52,0a3.3,3.3,0,0,0-1-1.61,2.29,2.29,0,0,0-1.54-.48,2.09,2.09,0,0,0-1.34.45,1.34,1.34,0,0,0-.46,1.11,1.55,1.55,0,0,0,.14.58,1.52,1.52,0,0,0,.38.48,3.11,3.11,0,0,0,.67.44,9.11,9.11,0,0,0,1,.46,17.1,17.1,0,0,1,1.73.76,5.51,5.51,0,0,1,1.1.73,2.24,2.24,0,0,1,.59.79,2.54,2.54,0,0,1,.19.94,2.83,2.83,0,0,1-.24,1.24,2.86,2.86,0,0,1-.74,1,3.4,3.4,0,0,1-1.15.66,5,5,0,0,1-1.49.28,4,4,0,0,1-2.7-.84l-.35.68h-.32C207.06,49.52,207,48.93,206.85,47.73Z"/><path class="cls-1" d="M222.44,48.33a5.45,5.45,0,0,0,.07.82.87.87,0,0,0,.27.48,1.24,1.24,0,0,0,.59.23,6.16,6.16,0,0,0,1,.08v.51c-1.93,0-2.9,0-4.83,0,0-.21,0-.31,0-.51a4.27,4.27,0,0,0,.77-.1.87.87,0,0,0,.46-.23.86.86,0,0,0,.21-.46,4.18,4.18,0,0,0,0-.76l-.07-6.25a6.33,6.33,0,0,0-.06-.76.85.85,0,0,0-.2-.45.72.72,0,0,0-.43-.23,4.4,4.4,0,0,0-.73-.07v-.51c3.23-.05,4.84-.06,8.07-.05l.15,2.56h-.49a3.09,3.09,0,0,0-.26-1,1.44,1.44,0,0,0-.51-.58,1.94,1.94,0,0,0-.83-.3,7.21,7.21,0,0,0-1.25-.09h-1.78a.2.2,0,0,0-.23.23c0,1.62,0,2.43,0,4a7.25,7.25,0,0,0,1.14-.08,2.29,2.29,0,0,0,.79-.26,1.27,1.27,0,0,0,.48-.52,2.25,2.25,0,0,0,.2-.83h.49v3.93H225a3.18,3.18,0,0,0-.22-.84,1.14,1.14,0,0,0-.45-.52,2,2,0,0,0-.77-.27,7.63,7.63,0,0,0-1.17-.07C222.43,46.69,222.43,47.23,222.44,48.33Z"/><path class="cls-1" d="M234.71,40.06a6.11,6.11,0,0,1,2.28.47,5.53,5.53,0,0,1,1.81,1.19A5.13,5.13,0,0,1,240,43.46a5,5,0,0,1,.38,2.13,4.9,4.9,0,0,1-.51,2,5.16,5.16,0,0,1-1.27,1.62,5.73,5.73,0,0,1-1.83,1.07,6.32,6.32,0,0,1-2.23.36,6,6,0,0,1-2.22-.45,5.75,5.75,0,0,1-1.79-1.13,5.23,5.23,0,0,1-1.2-1.67,4.74,4.74,0,0,1-.44-2,5.12,5.12,0,0,1,1.7-3.81,5.66,5.66,0,0,1,1.85-1.12A6.21,6.21,0,0,1,234.71,40.06Zm-.19,9.86a4.18,4.18,0,0,0,1.62-.27,3.45,3.45,0,0,0,1.26-.86,3.78,3.78,0,0,0,.82-1.38,5.73,5.73,0,0,0,.33-1.83,6.3,6.3,0,0,0-.22-1.95,4.4,4.4,0,0,0-.75-1.5,3.56,3.56,0,0,0-1.23-1,4,4,0,0,0-1.65-.36,4.08,4.08,0,0,0-1.67.3,3.43,3.43,0,0,0-1.27.92,4.32,4.32,0,0,0-.8,1.47,6.11,6.11,0,0,0-.3,1.93,6,6,0,0,0,.25,1.85,4.16,4.16,0,0,0,.77,1.41,3.32,3.32,0,0,0,1.22.9A4,4,0,0,0,234.52,49.92Z"/><path class="cls-1" d="M250.18,43.36a2.55,2.55,0,0,1-.76,1.75,3.65,3.65,0,0,1-2.16.84c1.15,1.49,1.72,2.23,2.85,3.73a2.24,2.24,0,0,0,.77.68,4.86,4.86,0,0,0,1,.35c0,.2,0,.3,0,.51-1-.07-1.58-.1-2.63-.15-1.24-1.76-1.87-2.63-3.14-4.38a3.5,3.5,0,0,0-.32-.38,1.72,1.72,0,0,0-.33-.22,1.38,1.38,0,0,0-.39-.11l-.54,0c0,1.11-.08,1.67-.12,2.78a4.2,4.2,0,0,0,0,.82.94.94,0,0,0,.24.5,1.16,1.16,0,0,0,.57.26,6.77,6.77,0,0,0,1,.1l0,.51-4.81-.2V50.2a3.5,3.5,0,0,0,.78-.05.86.86,0,0,0,.46-.21.76.76,0,0,0,.24-.45,4.27,4.27,0,0,0,.09-.76c.09-2.5.14-3.75.24-6.24a4.38,4.38,0,0,0,0-.76.83.83,0,0,0-.18-.47.79.79,0,0,0-.41-.24,3.91,3.91,0,0,0-.73-.11c0-.21,0-.31,0-.51,1.76.06,2.63.09,4.39.18a5.27,5.27,0,0,1,2.94.83A2.14,2.14,0,0,1,250.18,43.36Zm-5.62,1.91,1,0a3.58,3.58,0,0,0,2.08-.39,1.89,1.89,0,0,0,.75-1.58,2,2,0,0,0-.46-1.59,2.46,2.46,0,0,0-1.65-.54L245,41.15a.21.21,0,0,0-.25.22C244.66,42.93,244.63,43.71,244.56,45.27Z"/><path class="cls-1" d="M265.28,41.86l.39,0L265.52,45l-.51,0A3.22,3.22,0,0,0,264,43a3.35,3.35,0,0,0-2.05-.85,3.4,3.4,0,0,0-1.55.2,3,3,0,0,0-1.19.84,4.25,4.25,0,0,0-.82,1.42,7.26,7.26,0,0,0-.38,1.94,5.23,5.23,0,0,0,.67,3.38,3.18,3.18,0,0,0,2.56,1.37,3.31,3.31,0,0,0,3.62-2.45l.56,0-.3,3.33-.48,0c-.08-.44-.13-.65-.22-1.09a5.29,5.29,0,0,1-3.56.9,6,6,0,0,1-2.06-.53,4.44,4.44,0,0,1-2.43-2.83,5.72,5.72,0,0,1-.21-2.14,5.88,5.88,0,0,1,.54-2.19,5,5,0,0,1,1.21-1.65,4.67,4.67,0,0,1,1.77-1,5.66,5.66,0,0,1,2.2-.22,5,5,0,0,1,1.55.36,7.46,7.46,0,0,1,1.54.87Z"/><path class="cls-1" d="M273.46,42.54a6.1,6.1,0,0,1,2.23.67,5.64,5.64,0,0,1,1.7,1.34,5.18,5.18,0,0,1,1,1.84,5,5,0,0,1,.19,2.16,4.84,4.84,0,0,1-.69,2,5.45,5.45,0,0,1-1.41,1.5,6.06,6.06,0,0,1-1.92.9,6.29,6.29,0,0,1-2.26.16,6,6,0,0,1-2.17-.65,5.88,5.88,0,0,1-1.69-1.29,5.13,5.13,0,0,1-1-1.76,4.84,4.84,0,0,1-.26-2.08,5.14,5.14,0,0,1,.65-2.06,5.37,5.37,0,0,1,1.38-1.58,5.72,5.72,0,0,1,1.95-.95A6.2,6.2,0,0,1,273.46,42.54Zm-1.07,9.8a4.06,4.06,0,0,0,1.65-.13,3.32,3.32,0,0,0,1.32-.74,3.88,3.88,0,0,0,.95-1.3,5.66,5.66,0,0,0,.49-1.8,6.35,6.35,0,0,0-.05-2,4.21,4.21,0,0,0-.62-1.55A3.37,3.37,0,0,0,275,43.78a4.07,4.07,0,0,0-1.61-.51,4.23,4.23,0,0,0-1.69.15,3.51,3.51,0,0,0-1.35.81,4.24,4.24,0,0,0-.93,1.39,6,6,0,0,0-.47,1.9,5.67,5.67,0,0,0,.09,1.86,3.94,3.94,0,0,0,.64,1.47,3.32,3.32,0,0,0,1.13,1A4,4,0,0,0,272.39,52.34Z"/><path class="cls-1" d="M288,55.07c-2.08-3.7-3.15-5.55-5.34-9.22h-.06c-.29,2.28-.44,3.41-.74,5.68-.06.45-.08.8-.09,1.06a1.34,1.34,0,0,0,.12.62.65.65,0,0,0,.37.34,4.45,4.45,0,0,0,.68.17c0,.2,0,.3-.06.5l-3.65-.47.06-.5a4.14,4.14,0,0,0,.78,0,.86.86,0,0,0,.49-.22,1.17,1.17,0,0,0,.29-.53,6.41,6.41,0,0,0,.18-1l.7-5.4a7,7,0,0,0,.07-.93,1.35,1.35,0,0,0-.12-.61.79.79,0,0,0-.39-.35,2.84,2.84,0,0,0-.7-.2l.06-.51,2.75.35c2,3.43,3,5.14,4.93,8.59h.06c.3-2.09.45-3.13.76-5.23a8.22,8.22,0,0,0,.1-1,1.3,1.3,0,0,0-.1-.63.72.72,0,0,0-.37-.34A3.62,3.62,0,0,0,288,45c0-.2.05-.3.08-.5,1.49.21,2.23.32,3.72.55l-.07.5a3.81,3.81,0,0,0-.8,0,.83.83,0,0,0-.5.2,1.26,1.26,0,0,0-.31.54,7.67,7.67,0,0,0-.2,1l-1.17,7.94Z"/><path class="cls-1" d="M300.13,57c-2-3.76-3-5.63-5.08-9.37H295c-.36,2.26-.54,3.4-.91,5.66a9.35,9.35,0,0,0-.12,1,1.44,1.44,0,0,0,.1.63.63.63,0,0,0,.36.34,3.12,3.12,0,0,0,.68.2L295,56l-3.64-.58c0-.2.05-.3.08-.5a3.63,3.63,0,0,0,.78,0,.9.9,0,0,0,.5-.2,1.12,1.12,0,0,0,.3-.53,5.76,5.76,0,0,0,.21-1l.85-5.38a6.17,6.17,0,0,0,.1-.93,1.32,1.32,0,0,0-.1-.6.76.76,0,0,0-.38-.37,3.06,3.06,0,0,0-.7-.22l.08-.51,2.74.44c1.92,3.48,2.86,5.22,4.69,8.72h0c.37-2.08.55-3.13.92-5.21a9.38,9.38,0,0,0,.13-1,1.35,1.35,0,0,0-.08-.64.74.74,0,0,0-.37-.35,3.84,3.84,0,0,0-.7-.2c0-.2.06-.3.09-.5,1.49.25,2.23.38,3.72.65l-.09.51a4.17,4.17,0,0,0-.8-.06.83.83,0,0,0-.51.19,1.17,1.17,0,0,0-.32.53,6.67,6.67,0,0,0-.23,1c-.56,3.15-.84,4.73-1.41,7.89Z"/><path class="cls-1" d="M311.19,48.32a6,6,0,0,1,2.17.86,5.64,5.64,0,0,1,1.58,1.49,5.1,5.1,0,0,1,.86,4.08,4.65,4.65,0,0,1-.87,1.9A5.31,5.31,0,0,1,313.4,58a6.31,6.31,0,0,1-6.39-.15,5.84,5.84,0,0,1-1.57-1.43,5.29,5.29,0,0,1-.89-1.85,4.75,4.75,0,0,1-.07-2.09,4.87,4.87,0,0,1,.82-2,5.25,5.25,0,0,1,1.52-1.45,5.72,5.72,0,0,1,2-.78A6.37,6.37,0,0,1,311.19,48.32ZM309.27,58a4.23,4.23,0,0,0,1.66,0,3.58,3.58,0,0,0,1.39-.63,4.06,4.06,0,0,0,1.06-1.21,5.83,5.83,0,0,0,.64-1.75,6,6,0,0,0,.12-2,4.15,4.15,0,0,0-.48-1.61,3.27,3.27,0,0,0-1.05-1.17,4.36,4.36,0,0,0-3.27-.65,3.45,3.45,0,0,0-1.41.69,4.19,4.19,0,0,0-1.06,1.3,6.2,6.2,0,0,0-.63,1.85,5.63,5.63,0,0,0-.07,1.86,4.07,4.07,0,0,0,.51,1.53,3.34,3.34,0,0,0,1.05,1.1A4.09,4.09,0,0,0,309.27,58Z"/><path class="cls-1" d="M319.37,58.14a7.34,7.34,0,0,0-.18,1,1.37,1.37,0,0,0,.08.64.72.72,0,0,0,.38.37,3.94,3.94,0,0,0,.74.25c-.05.2-.07.3-.11.5l-4.35-1c.05-.2.07-.3.11-.5a3.53,3.53,0,0,0,.78.08.8.8,0,0,0,.51-.17,1.16,1.16,0,0,0,.33-.51,6.7,6.7,0,0,0,.27-1c.47-2.13.7-3.2,1.17-5.32a7.3,7.3,0,0,0,.15-.93,1.28,1.28,0,0,0-.07-.61.76.76,0,0,0-.35-.38,2.91,2.91,0,0,0-.69-.27l.1-.5,4.18.92-.12.5a2.09,2.09,0,0,0-.72,0,.76.76,0,0,0-.48.21,1.41,1.41,0,0,0-.33.56,8.08,8.08,0,0,0-.26,1C320.05,55.06,319.82,56.08,319.37,58.14Z"/><path class="cls-1" d="M322.37,58.18l.5.12a3.28,3.28,0,0,0,.11,1.14,2.93,2.93,0,0,0,.48,1,2.88,2.88,0,0,0,.79.72,3.88,3.88,0,0,0,1.08.44,2.58,2.58,0,0,0,1.67-.08,1.55,1.55,0,0,0,.88-1.1,1.52,1.52,0,0,0-.22-1.25,3.89,3.89,0,0,0-.6-.68c-.27-.23-.6-.5-1-.8a16,16,0,0,1-1.24-1,4.15,4.15,0,0,1-.75-.9,2.24,2.24,0,0,1-.31-.86,2.81,2.81,0,0,1,.07-.94,2.77,2.77,0,0,1,.48-1.06,2.67,2.67,0,0,1,.84-.73,2.89,2.89,0,0,1,1.11-.35,3.54,3.54,0,0,1,1.28.09,3.11,3.11,0,0,1,1.07.45,3.72,3.72,0,0,1,.91.84l.5-.5.32.08c-.2,1-.3,1.58-.49,2.63l-.5-.13a3.41,3.41,0,0,0-.56-1.82,2.35,2.35,0,0,0-1.37-.88,2.16,2.16,0,0,0-1.42.08,1.32,1.32,0,0,0-.74.94,1.36,1.36,0,0,0,0,.6,1.42,1.42,0,0,0,.24.56,3.11,3.11,0,0,0,.53.61,7.94,7.94,0,0,0,.86.71q.9.68,1.47,1.2a5.66,5.66,0,0,1,.87,1,2.26,2.26,0,0,1,.36.92,2.65,2.65,0,0,1-.06,1A2.8,2.8,0,0,1,327.94,62a3.5,3.5,0,0,1-1.29.33,4.74,4.74,0,0,1-1.52-.14,4.39,4.39,0,0,1-1.32-.53,4.48,4.48,0,0,1-1.08-1l-.52.55-.31-.07C322.09,60,322.19,59.37,322.37,58.18Z"/><path class="cls-1" d="M331.05,60.27l.5.13a3.08,3.08,0,0,0,.09,1.14,2.82,2.82,0,0,0,.45,1,3,3,0,0,0,.78.73,3.59,3.59,0,0,0,1.07.47,2.53,2.53,0,0,0,1.67-.05,1.54,1.54,0,0,0,.91-1.08,1.69,1.69,0,0,0,0-.63,1.66,1.66,0,0,0-.24-.62,3.51,3.51,0,0,0-.59-.69,12.92,12.92,0,0,0-1-.83,12.21,12.21,0,0,1-1.23-1,4,4,0,0,1-.73-.9,2.18,2.18,0,0,1-.29-.87,2.81,2.81,0,0,1,.08-.94,2.71,2.71,0,0,1,.51-1,2.68,2.68,0,0,1,.85-.72,3,3,0,0,1,1.12-.32,3.81,3.81,0,0,1,1.28.11,3.72,3.72,0,0,1,1.07.48,4,4,0,0,1,.89.86l.51-.49.31.08c-.21,1-.32,1.57-.54,2.62l-.5-.13a3.34,3.34,0,0,0-.52-1.83,2.27,2.27,0,0,0-1.35-.91,2.15,2.15,0,0,0-1.43,0,1.32,1.32,0,0,0-.75.93,1.34,1.34,0,0,0,0,.59,1.47,1.47,0,0,0,.23.58,3,3,0,0,0,.52.61,7.66,7.66,0,0,0,.85.73A15.86,15.86,0,0,1,337,59.47a5.58,5.58,0,0,1,.86,1,2.46,2.46,0,0,1,.34.93,2.87,2.87,0,0,1-.68,2.08,2.9,2.9,0,0,1-1,.73,3.87,3.87,0,0,1-1.31.3,5.14,5.14,0,0,1-1.52-.17,4.47,4.47,0,0,1-1.31-.56,4.37,4.37,0,0,1-1.05-1l-.54.54-.3-.08C330.73,62.05,330.84,61.46,331.05,60.27Z"/><path class="cls-1" d="M343.07,60.86a7.91,7.91,0,0,0,1.24.26,2.34,2.34,0,0,0,.86,0,1.14,1.14,0,0,0,.55-.35,1.7,1.7,0,0,0,.32-.63l.47.13-1,3.52-.46-.13a2,2,0,0,0,.08-.71,1.15,1.15,0,0,0-.27-.58,2.39,2.39,0,0,0-.7-.51,7.37,7.37,0,0,0-1.21-.44c-.33,1.16-.49,1.75-.82,2.92A2,2,0,0,0,342,65a1,1,0,0,0,.24.55,1.75,1.75,0,0,0,.61.44,6.59,6.59,0,0,0,1,.37,6.15,6.15,0,0,0,1.22.25,2.26,2.26,0,0,0,.92-.09,1.77,1.77,0,0,0,.71-.46,4.16,4.16,0,0,0,.61-.85l.5.15c-.38,1-.57,1.49-.94,2.48-3.29-1-4.93-1.44-8.23-2.34.05-.19.08-.29.13-.49a4.09,4.09,0,0,0,.77.13.88.88,0,0,0,.51-.1.8.8,0,0,0,.34-.38,4.87,4.87,0,0,0,.25-.72l1.67-6a4,4,0,0,0,.16-.74.94.94,0,0,0-.07-.49.75.75,0,0,0-.35-.33,4.05,4.05,0,0,0-.69-.28l.14-.49c3.14.86,4.71,1.3,7.84,2.22-.22.92-.33,1.38-.54,2.3l-.48-.14a2.54,2.54,0,0,0,0-.92,1.51,1.51,0,0,0-.35-.66,2.35,2.35,0,0,0-.73-.51,8.26,8.26,0,0,0-1.15-.41L344.41,57a.2.2,0,0,0-.29.15Z"/><path class="cls-1" d="M358.5,67.09a7.18,7.18,0,0,1-.78,1.71,3.31,3.31,0,0,1-1.07,1.07,3.13,3.13,0,0,1-1.42.4,5.68,5.68,0,0,1-1.84-.29,7.4,7.4,0,0,1-1.64-.72,3,3,0,0,1-1-1,2.73,2.73,0,0,1-.39-1.35,5.39,5.39,0,0,1,.28-1.78c.4-1.35.61-2,1-3.39.19-.63.32-1.12.39-1.48a1.28,1.28,0,0,0,0-.84.87.87,0,0,0-.38-.35,3.37,3.37,0,0,0-.71-.28l.14-.49c1.85.55,2.77.83,4.61,1.4l-.15.49a3.83,3.83,0,0,0-.76-.18.76.76,0,0,0-.52.12,1.49,1.49,0,0,0-.47.66,14.82,14.82,0,0,0-.5,1.44l-1.07,3.49a5.29,5.29,0,0,0-.22,1.2,2.18,2.18,0,0,0,.2,1,2.06,2.06,0,0,0,.66.79,4,4,0,0,0,1.19.57,2.7,2.7,0,0,0,2.2-.09,3.08,3.08,0,0,0,1.33-1.87l1-3.08A12.57,12.57,0,0,0,359,62.5a1.52,1.52,0,0,0-.09-.94.94.94,0,0,0-.4-.36,5,5,0,0,0-.69-.27l.16-.48,3.9,1.25c-.06.2-.09.29-.16.49A3,3,0,0,0,361,62a.75.75,0,0,0-.53.14,1.81,1.81,0,0,0-.54.75c-.16.36-.36.9-.59,1.61Z"/><path class="cls-1" d="M370.23,67.27A2.53,2.53,0,0,1,369,68.73a3.72,3.72,0,0,1-2.34.19c.71,1.76,1.06,2.63,1.74,4.39a2.17,2.17,0,0,0,.57.87,3.63,3.63,0,0,0,.91.63l-.17.48-2.52-.89c-.72-2-1.09-3.05-1.84-5.09a3.22,3.22,0,0,0-.21-.45,1.54,1.54,0,0,0-.25-.31,1.62,1.62,0,0,0-.35-.22l-.52-.19-.89,2.64a4.33,4.33,0,0,0-.2.79.83.83,0,0,0,.09.55,1.18,1.18,0,0,0,.48.41,6.68,6.68,0,0,0,.93.38l-.17.48c-1.84-.63-2.77-.94-4.62-1.55.06-.19.09-.29.16-.49a3.7,3.7,0,0,0,.76.17.94.94,0,0,0,.52-.07.76.76,0,0,0,.35-.36,3.32,3.32,0,0,0,.29-.71l2-5.93a4.67,4.67,0,0,0,.19-.73.9.9,0,0,0,0-.5.76.76,0,0,0-.34-.35,4.35,4.35,0,0,0-.67-.31c.07-.2.1-.29.16-.49l4.22,1.41a5.49,5.49,0,0,1,2.63,1.64A2.14,2.14,0,0,1,370.23,67.27Zm-6,.23.95.32a3.59,3.59,0,0,0,2.12.21,1.86,1.86,0,0,0,1.18-1.3,2,2,0,0,0,0-1.65,2.54,2.54,0,0,0-1.46-1l-1.23-.42a.21.21,0,0,0-.3.14Z"/><path class="cls-1" d="M371.18,72.47l.48.18a3.37,3.37,0,0,0,0,1.14,2.78,2.78,0,0,0,.36,1,2.88,2.88,0,0,0,.71.81,3.55,3.55,0,0,0,1,.57,2.52,2.52,0,0,0,1.69.12,1.68,1.68,0,0,0,1.11-1.6,1.58,1.58,0,0,0-.19-.65,3.06,3.06,0,0,0-.52-.74,11.24,11.24,0,0,0-.92-.93,14.84,14.84,0,0,1-1.13-1.15,4.4,4.4,0,0,1-.64-1,2.17,2.17,0,0,1-.21-.89,2.73,2.73,0,0,1,.18-.93,2.87,2.87,0,0,1,.6-1,2.66,2.66,0,0,1,.93-.62,2.88,2.88,0,0,1,1.15-.22,4,4,0,0,1,1.27.25,3.19,3.19,0,0,1,1,.58,3.82,3.82,0,0,1,.82.94l.55-.43.31.11c-.32,1-.48,1.53-.79,2.56l-.49-.19a3.34,3.34,0,0,0-.35-1.87,2.33,2.33,0,0,0-1.27-1,2.18,2.18,0,0,0-1.43-.09,1.33,1.33,0,0,0-.85.85,1.49,1.49,0,0,0-.09.58,1.61,1.61,0,0,0,.17.6,4.22,4.22,0,0,0,.46.66c.21.24.47.51.79.81.54.52,1,1,1.33,1.38a5.62,5.62,0,0,1,.76,1.1,2.21,2.21,0,0,1,.07,1.9A2.76,2.76,0,0,1,376.31,77a3.63,3.63,0,0,1-1.34.17,5,5,0,0,1-1.51-.32A4,4,0,0,1,371.25,75l-.59.49-.3-.11Z"/><polygon class="cls-2" points="226.22 89.82 228.75 89.08 228.01 91.61 228.75 94.14 226.22 93.4 223.69 94.14 224.43 91.61 223.69 89.08 226.22 89.82"/><polygon class="cls-2" points="226.22 89.82 228.75 89.08 228.01 91.61 228.75 94.14 226.22 93.4 223.69 94.14 224.43 91.61 223.69 89.08 226.22 89.82"/><circle class="cls-3" cx="119.11" cy="114.19" r="1.32"/><circle class="cls-3" cx="105.04" cy="120" r="1.32"/><polygon class="cls-3" points="211.43 195.83 211.43 201.37 138.74 198.6 211.43 195.83"/><polygon class="cls-3" points="246.83 195.83 246.83 201.37 319.52 198.6 246.83 195.83"/><path class="cls-1" d="M235.1,200a5,5,0,0,0,.11-1,3.4,3.4,0,0,0-1.14-2.65,3.6,3.6,0,0,0-2.12-.69,4.56,4.56,0,0,0-2.33.49,4.85,4.85,0,0,0-1.32,1.44,8.83,8.83,0,0,0-.77,1.55,6.73,6.73,0,0,1-.92,1.65,1,1,0,0,1-.84.39,2.46,2.46,0,0,1-1.58-.47,1.79,1.79,0,0,1-.68-1.59,4,4,0,0,1,.28-1.59l.07-.11a6.06,6.06,0,0,0,.76.05c1.7,0,3.08-.62,3.08-1.38s-1.38-1.39-3.08-1.39-3.08.62-3.08,1.39c0,.48.55.9,1.39,1.15a5.3,5.3,0,0,0-.33,1.9,3.11,3.11,0,0,0,1.22,2.75,4.25,4.25,0,0,0,2.46.75,3.49,3.49,0,0,0,2.53-.88,4.64,4.64,0,0,0,1-1.6c.31-.66.56-1.19.77-1.59a2.07,2.07,0,0,1,2-1.38,1.5,1.5,0,0,1,1.31.58,2.12,2.12,0,0,1,.34,1.25,2.65,2.65,0,0,1-.14.87c-.17,0-.33,0-.5,0-1.7,0-3.08.63-3.08,1.39s1.38,1.39,3.08,1.39,3.08-.62,3.08-1.39C236.72,200.65,236.06,200.2,235.1,200Z"/><polygon class="cls-3" points="211.43 195.83 211.43 201.37 138.74 198.6 211.43 195.83"/><polygon class="cls-3" points="246.83 195.83 246.83 201.37 319.52 198.6 246.83 195.83"/><polygon class="cls-1" points="226.22 89.82 228.75 89.08 228.01 91.61 228.75 94.14 226.22 93.4 223.69 94.14 224.43 91.61 223.69 89.08 226.22 89.82"/><path class="cls-3" d="M189.43,67.72c-1.23.2-15.4,3-28.69,33.17l-.4.76c-7.34,16.35-14.86,17.74-15,17.77A10.61,10.61,0,0,1,140,98.89c4.92-1.11,9.77,1.51,10.88,6s-2,9.18-7,10.43a6.61,6.61,0,1,1,4.46-9,1.37,1.37,0,0,0,0,.87,1.32,1.32,0,0,0,1.72.74,1.33,1.33,0,0,0,.18-2.37,8.68,8.68,0,1,0-5.88,11.8c6.1-1.53,9.93-7.33,8.53-12.94s-7.23-8.77-13.2-7.5v0l-.19.06-.23.05v0a12.67,12.67,0,0,0,6.43,24.5h0c.36,0,8.65-1.38,16.51-18.89l.4-.76c13.1-29.74,27-32,27.16-32l.12,0a19.67,19.67,0,0,1,10,38,17.41,17.41,0,0,1-8.2-33.85,12.57,12.57,0,0,1,15.23,9.13l-.06,0a12.5,12.5,0,0,1-23.37,8.49,4.12,4.12,0,0,0,0-2.27c-.39-1.56-1.43-2.65-2.32-2.43s-1.3,1.68-.91,3.24a4.18,4.18,0,0,0,1,1.94A14.67,14.67,0,0,0,209,82.55h-.05A14.64,14.64,0,0,0,191.2,71.92a19.49,19.49,0,0,0,8.71,38v0l.36-.1c.13,0,.25,0,.37-.09h0a21.75,21.75,0,0,0-11.22-42Z"/><path class="cls-3" d="M121.63,104.4a10.92,10.92,0,0,0-8.38-.8,13.53,13.53,0,0,0-9,16.92l1.61-.49a11.86,11.86,0,0,1,7.86-14.82,9.32,9.32,0,0,1,11.64,6.18,7.29,7.29,0,0,1-4.83,9.1,5.67,5.67,0,0,1-7.07-3.75,4.37,4.37,0,0,1,2.89-5.45,3.33,3.33,0,0,1,4.15,2.2,2.5,2.5,0,0,1-1.65,3.11,1.86,1.86,0,0,1-1.39-.13,1.79,1.79,0,0,1-.88-1.08,1.29,1.29,0,0,1,.85-1.61.87.87,0,0,1,1.07.58l1.62-.5a2.57,2.57,0,0,0-3.19-1.69,3,3,0,0,0-2,3.72,3.51,3.51,0,0,0,1.71,2.07,3.45,3.45,0,0,0,2.67.25,4.18,4.18,0,0,0,2.77-5.21,5,5,0,0,0-6.25-3.32,6.05,6.05,0,0,0-4,7.55,7.32,7.32,0,0,0,9.18,4.87,9,9,0,0,0,6-11.21A11,11,0,0,0,121.63,104.4Z"/><path class="cls-3" d="M263,67.72c1.23.2,15.4,3,28.69,33.17l.4.76c7.34,16.35,14.86,17.74,15,17.77a10.61,10.61,0,0,0,5.33-20.53c-4.92-1.11-9.77,1.51-10.88,6s2,9.18,7,10.43a6.61,6.61,0,1,0-4.46-9,1.37,1.37,0,0,1,0,.87,1.32,1.32,0,0,1-1.72.74,1.33,1.33,0,0,1-.18-2.37,8.67,8.67,0,1,1,5.88,11.8c-6.11-1.53-9.93-7.33-8.53-12.94s7.23-8.77,13.2-7.5v0l.19.06.23.05v0a12.67,12.67,0,0,1-6.43,24.5h0c-.36,0-8.65-1.38-16.51-18.89l-.4-.76c-13.1-29.74-27-32-27.16-32l-.12,0a19.67,19.67,0,0,0-10,38,17.41,17.41,0,0,0,8.19-33.85,12.57,12.57,0,0,0-15.22,9.13l.06,0a12.5,12.5,0,0,0,23.37,8.49,4.12,4.12,0,0,1,0-2.27c.39-1.56,1.43-2.65,2.32-2.43s1.3,1.68.91,3.24a4.18,4.18,0,0,1-1,1.94,14.67,14.67,0,0,1-27.65-9.5h.05a14.64,14.64,0,0,1,17.74-10.64,19.49,19.49,0,0,1-8.71,38v0l-.36-.1c-.13,0-.25,0-.37-.09h0a21.75,21.75,0,0,1,11.22-42Z"/><path class="cls-3" d="M330.81,104.4a10.92,10.92,0,0,1,8.38-.8,13.53,13.53,0,0,1,9,16.92l-1.61-.49a11.86,11.86,0,0,0-7.86-14.82,9.32,9.32,0,0,0-11.64,6.18,7.29,7.29,0,0,0,4.83,9.1,5.67,5.67,0,0,0,7.07-3.75,4.37,4.37,0,0,0-2.89-5.45,3.33,3.33,0,0,0-4.15,2.2,2.5,2.5,0,0,0,1.65,3.11,1.86,1.86,0,0,0,1.39-.13,1.79,1.79,0,0,0,.88-1.08,1.29,1.29,0,0,0-.85-1.61.87.87,0,0,0-1.07.58l-1.62-.5a2.56,2.56,0,0,1,3.19-1.69,3,3,0,0,1,2,3.72,3.51,3.51,0,0,1-1.71,2.07,3.45,3.45,0,0,1-2.67.25,4.17,4.17,0,0,1-2.77-5.21,5,5,0,0,1,6.25-3.32,6.05,6.05,0,0,1,4,7.55,7.32,7.32,0,0,1-9.18,4.87,9,9,0,0,1-5.95-11.21A11,11,0,0,1,330.81,104.4Z"/><circle class="cls-3" cx="333.26" cy="114.09" r="1.32"/><circle class="cls-3" cx="119.11" cy="114.19" r="1.32"/><circle class="cls-3" cx="105.04" cy="120" r="1.32"/><path class="cls-1" d="M97.57,188.76a18.18,18.18,0,0,1-9.69,7l-2.61.86c-2.75-8.29-4.13-12.44-6.89-20.73l1.72-.57a8.68,8.68,0,0,1,6.66.15q2.85,1.4,5.61,5.89l1.2-.37c-2.33-7.71-3.49-11.56-5.83-19.27l-1.1.33a13.64,13.64,0,0,1-1.38,7.23,8.34,8.34,0,0,1-5,4.13l-2.45.81-6.63-19.95,2.63-.87c4.47-1.46,8.13-1.69,10.93-.76s5.9,3.28,9.24,7.09l1.34-.38-4.45-12.74c-13.25,3.76-26.32,8.17-39.22,13,.22.56.32.84.53,1.4,1.76-.66,2.64-1,4.4-1.63Q64.27,180.27,72,201.22l-4,1.49.53,1.4c12.32-4.62,24.82-8.81,37.49-12.34l-3.45-14.43-1.42.4A19.56,19.56,0,0,1,97.57,188.76Z"/><path class="cls-1" d="M139.81,178.5c-1.92,2.78-4.84,4.58-8.81,5.46l-2.52.56q-4.92-21.77-9.86-43.53c3.26-.74,4.89-1.09,8.15-1.77-.12-.59-.18-.88-.31-1.47-9.28,2-18.45,4.23-27.65,6.61l.39,1.44,4.5-1.19q5.6,21.62,11.18,43.21c-1.64.42-2.46.64-4.09,1.08.15.58.23.87.39,1.45,12.25-3.15,24.51-5.91,36.93-8.31-.6-6.36-.89-9.54-1.46-15.91l-1.52.28A45.88,45.88,0,0,1,139.81,178.5Z"/><path class="cls-1" d="M145.26,135.51l4.26-.71,7.17,44.46c-1.55.25-2.33.38-3.88.65l.22,1.27c8.57-1.46,12.87-2.08,21.49-3.13l-.16-1.28-3.89.49q-2.91-22.33-5.81-44.66c1.71-.23,2.57-.33,4.28-.54l-.16-1.28c-7.93.94-15.87,2.09-23.74,3.45C145.13,134.74,145.17,135,145.26,135.51Z"/><path class="cls-1" d="M221.59,144.25c-.41-6.82-.62-10.23-1.06-17.06-15.47.43-30.8,1.41-46.21,2.94.44,6.83.66,10.24,1.12,17.06l1.43-.16c1.48-6,3-10.29,4.64-12.75a9.16,9.16,0,0,1,7.4-4.1l1-.08q1.76,22.31,3.52,44.62c-2.42.19-3.63.3-6,.52,0,.57.08.85.13,1.42,8.59-.82,17.26-1.37,25.88-1.64l0-1.43c-2.42.08-3.63.13-6.05.25l-2.16-44.71.94,0c3.34-.15,5.94.86,7.77,3s3.95,6.2,6.29,12.19Z"/><path class="cls-1" d="M246.6,127c-2.58-.09-3.87-.13-6.44-.18-7,15.31-13.4,30.89-19.17,46.69l-3.35.08c0,.51,0,.77,0,1.29,4.35-.11,6.52-.14,10.87-.15v-1.29c-2.14,0-3.21,0-5.34,0,2.11-5.91,3.2-8.86,5.46-14.74,5.82,0,8.74,0,14.56.21,2,5.94,2.92,8.91,4.76,14.87-2-.08-3-.12-5-.18,0,.52,0,.77,0,1.29,9.28.28,13.93.54,23.19,1.29.05-.52.07-.78.11-1.29-1.31-.11-2-.16-3.27-.25C258.06,158.61,252.64,142.68,246.6,127Zm-17.28,30.24c2.78-7.13,4.21-10.68,7.2-17.77,2.56,7.17,3.79,10.76,6.15,18C237.33,157.29,234.66,157.25,229.32,157.25Z"/><path class="cls-1" d="M313.77,178.11a2.35,2.35,0,0,1-2.22.73,1.63,1.63,0,0,1-1.45-1.5,18.55,18.55,0,0,1,.45-4.76c.25-1.42.37-2.13.63-3.55q1-5.84-.88-8.72c-1.28-1.92-3.89-3.48-7.82-4.59l0-.2c4.3.35,7.63-.09,10-1.35s3.92-3.78,4.61-7.58-.09-6.78-2.19-9a16.16,16.16,0,0,0-5.55-3.18c-2.72-1.06-7.46-2.12-14.22-3-7.82-1.06-15.71-1.91-23.58-2.55-.05.51-.07.77-.11,1.28,2,.17,3,.27,5.07.46q-2.13,22.41-4.24,44.83l-4.62-.41c0,.52-.06.77-.11,1.29,9.21.78,13.81,1.28,23,2.53.07-.52.1-.77.17-1.28l-4.6-.6c1.14-9.05,1.7-13.57,2.84-22.62l3.94.51q2.89.39,3.72,2.3a10.93,10.93,0,0,1,.27,5.68c-.28,2-.42,2.95-.71,4.91-.69,4.76-.33,8.12,1,10.09s3.95,3.25,7.79,3.9,6.51.47,8-.58,2.92-3.41,4.17-7.1l-1.19-.37A14.48,14.48,0,0,1,313.77,178.11Zm-12.44-33.57c-.53,3.54-1.6,6-3.19,7.37s-3.8,1.86-6.63,1.49l-2.39-.3c1-8.32,1.57-12.48,2.61-20.79l2.57.33c3,.39,5.11,1.27,6.31,2.62s1.54,3.79,1,7.33Z"/><path class="cls-1" d="M398.9,162.55c-2.63-5.46-8.08-9.65-16.26-12.26s-15.2-2.3-20.84.77-9.37,8.45-11.34,16-1.49,13.78,1.26,18.8,7.89,8.6,15.5,11,14,2.4,19.25-.27,9.38-7.57,12.14-14.87S401.52,168,398.9,162.55ZM383,179.19q-3.63,10.63-6.71,14.36c-2,2.49-4.85,3.14-8.46,2-3-.95-4.84-2.69-5.63-5.24A14.8,14.8,0,0,1,362,185a69.41,69.41,0,0,1,2.69-11.52c.56-1.88.84-2.82,1.39-4.69a99.39,99.39,0,0,1,3.76-11A15.55,15.55,0,0,1,372,154a13.16,13.16,0,0,1,2.51-2.22,5.79,5.79,0,0,1,3.24-1,15.07,15.07,0,0,1,7.74,2.47c1.64,1.17,2.6,3.13,2.8,5.81q.29,3.53-3.73,15.33Z"/><path class="cls-1" d="M347.57,135.62c-1.33-.76-.71-3.4-.71-3.4.25-1,.37-1.45.62-2.42l2.23-9.4c-.09-.18-.14-.26-.23-.43l.65-.34.77-2.8-.3-.83.29-.25c.2-.77.29-1.16.49-1.94,0,0-.59-1.49-5.24-2.31-4.54-1.25-5.71-.16-5.71-.16l-.4,2a3.54,3.54,0,0,1,.16.34l-.63.63-.5,2.86c.18.23.27.34.44.58l-.39.29-2,9.45c-.19,1-.29,1.47-.48,2.45,0,0-.57,2.65-2.1,2.77,0,0-6.95.38-8.55,6.26q-3.45,19.89-7,39.78c-.92,5.63-1.38,8.44-2.32,14.06a2.42,2.42,0,0,0,1.95,3c3.27.61,4.9.92,8.17,1.6s4.85,1.2,8.08,2.06a2.41,2.41,0,0,0,3-1.85c1.57-5.48,2.36-8.22,4-13.7q5.34-19.47,10.77-38.92C353.69,139,347.57,135.62,347.57,135.62Z"/></svg>